<svg height="99" viewBox="0 0 373 99" width="373" xmlns="http://www.w3.org/2000/svg"><g fill="#ff2600"><path d="m71.625 10.934c2.116-.523 3.459.694 4.596 2.856 1.923 3.675 4.108 7.224 6.247 10.797.796 1.319.887 2.457.068 3.845-4.096 6.963-8.123 13.948-12.128 20.957-.899 1.581-1.343 1.479-2.469.034-2.457-3.152-2.344-5.859-.045-9.159 2.696-3.868 4.755-8.168 7.178-12.23.683-1.149.615-2.025-.045-3.129-2.219-3.709-4.38-7.452-6.496-11.217-1.422-2.537-1.286-2.719 1.729-2.742.307-.012.637-.012 1.365-.012z"/><path d="m95.016 46.567c1.514 1.559 1.138 3.345-.159 5.404-2.207 3.516-4.175 7.19-6.178 10.831-.739 1.343-1.684 2.003-3.288 2.003-8.066-.035-16.144 0-24.21.068-1.82.011-1.957-.41-1.274-2.128 1.49-3.709 3.891-4.971 7.884-4.653 4.699.387 9.454-.011 14.176.046 1.331.011 2.059-.478 2.685-1.616 2.082-3.788 4.232-7.532 6.428-11.263 1.479-2.514 1.706-2.48 3.242.114.171.284.33.557.694 1.194z"/><path d="m76.005 84.703c-.58 2.093-2.321 2.674-4.744 2.583-4.152-.137-8.317.011-12.469.113-1.536.034-2.571-.443-3.379-1.831-4.039-6.986-8.135-13.949-12.253-20.889-.933-1.57-.626-1.9 1.194-2.161 3.96-.58 6.258.853 7.987 4.471 2.037 4.255 4.767 8.169 7.099 12.276.66 1.16 1.457 1.536 2.754 1.501 4.323-.102 8.646-.136 12.958-.113 2.913.011 2.992.227 1.536 2.855-.159.285-.319.569-.683 1.195z"/><path d="m33.489 87.49c-2.104.546-3.47-.66-4.619-2.798-1.968-3.652-4.198-7.179-6.371-10.718-.808-1.308-.91-2.446-.114-3.845 4.005-7.008 7.953-14.051 11.878-21.104.888-1.593 1.32-1.502 2.469-.057 2.491 3.128 2.412 5.836.159 9.158-2.651 3.903-4.653 8.226-7.031 12.31-.671 1.161-.591 2.037.08 3.129 2.264 3.675 4.46 7.395 6.633 11.138 1.456 2.526 1.319 2.708-1.696 2.765-.341.011-.671.011-1.388.022z"/><path d="m9.677 52.142c-1.536-1.547-1.183-3.334.091-5.404 2.173-3.538 4.096-7.236 6.053-10.911.728-1.354 1.65-2.025 3.265-2.036 8.066-.057 16.144-.194 24.21-.353 1.821-.034 1.957.387 1.297 2.105-1.444 3.732-3.822 5.017-7.827 4.744-4.699-.33-9.454.114-14.176.125-1.331 0-2.059.512-2.662 1.65-2.037 3.811-4.141 7.588-6.292 11.331-1.444 2.526-1.672 2.492-3.242-.068-.182-.273-.353-.557-.717-1.183z"/><path d="m28.222 13.779c.557-2.105 2.287-2.697 4.71-2.64 4.153.091 8.317-.114 12.469-.262 1.536-.056 2.583.41 3.402 1.798 4.118 6.94 8.294 13.846 12.503 20.74.944 1.559.649 1.889-1.172 2.185-3.947.625-6.268-.785-8.043-4.38-2.082-4.221-4.858-8.101-7.247-12.185-.672-1.149-1.468-1.525-2.765-1.479-4.323.159-8.635.239-12.958.273-2.913.023-3.004-.194-1.57-2.833.159-.296.318-.58.671-1.217z"/><path d="m41.681 23.29c-4.687.023-9.375.205-14.062.216-1.047-1.786-3.004-2.992-5.222-2.992-3.345 0-6.064 2.719-6.064 6.064s2.719 6.064 6.064 6.064c2.093 0 3.936-1.058 5.028-2.674 3.186-.125 6.383-.284 9.546-.045 3.333.25 4.869-1.423 6.223-3.891 1.195-2.219.967-2.754-1.513-2.742zm-19.284 6.462c-.296 0-.592-.046-.865-.114-1.331-.375-2.309-1.604-2.309-3.06 0-1.752 1.422-3.174 3.174-3.174.523 0 1.024.125 1.468.352 1.012.535 1.706 1.593 1.706 2.822 0 1.752-1.422 3.174-3.174 3.174z"/><path d="m27.79 45.384c-1.297-2.15-1.889-2.23-3.118-.08-2.526 4.38-4.88 8.852-7.44 13.209-.046.08-.091.159-.137.228-3.254.091-5.882 2.776-5.882 6.052 0 3.345 2.719 6.064 6.064 6.064s6.064-2.719 6.064-6.064c0-.978-.239-1.911-.648-2.73 1.706-3.163 3.31-6.394 5.347-9.341 1.877-2.753 1.194-4.926-.25-7.338zm-7.509 20.41c-.421 1.263-1.616 2.185-3.015 2.185-1.752 0-3.174-1.422-3.174-3.174 0-1.309.796-2.446 1.934-2.924.375-.16.796-.251 1.24-.251 1.752 0 3.174 1.422 3.174 3.175 0 .341-.057.671-.159.989z"/><path d="m69.793 27.317c-2.355-4.232-4.869-8.373-7.201-12.617.717-.99 1.126-2.207 1.126-3.515 0-3.345-2.719-6.064-6.064-6.064s-6.064 2.719-6.064 6.064c0 2.946 2.116 5.415 4.915 5.95 1.82 3.049 3.732 6.041 5.188 9.249 1.388 3.049 3.595 3.584 6.417 3.573 2.525-.012 2.89-.478 1.683-2.64zm-9.044-15.404c-.33 1.399-1.593 2.446-3.095 2.446-1.354 0-2.525-.865-2.969-2.059-.125-.342-.205-.717-.205-1.115 0-1.752 1.422-3.175 3.174-3.175s3.174 1.423 3.174 3.175c.012.25-.022.489-.079.728z"/><path d="m87.928 28.341c-3.344 0-6.063 2.719-6.063 6.064 0 .694.113 1.354.329 1.968-1.774 3.186-3.435 6.44-5.517 9.398-1.934 2.73-1.286 4.915.136 7.338 1.274 2.173 1.866 2.253 3.117.125 2.515-4.244 4.87-8.578 7.407-12.799.193.023.387.023.58.023 3.345 0 6.064-2.719 6.064-6.064s-2.708-6.053-6.053-6.053zm.808 9.125c-.261.068-.523.102-.808.102-1.752 0-3.174-1.422-3.174-3.174 0-.66.205-1.274.558-1.786.569-.842 1.536-1.388 2.616-1.388 1.753 0 3.175 1.422 3.175 3.174 0 1.479-1.002 2.719-2.367 3.072z"/><path d="m82.979 66.147c-1.945 0-3.686.933-4.801 2.366-3.583.08-7.167.273-10.717-.045-3.333-.296-4.892 1.365-6.268 3.811-1.229 2.196-1.013 2.742 1.467 2.753 4.983.035 9.966-.113 14.949-.045 1.013 1.934 3.038 3.265 5.37 3.265 3.345 0 6.064-2.719 6.064-6.064 0-3.322-2.719-6.041-6.064-6.041zm0 9.227c-.785 0-1.501-.285-2.059-.762-.682-.581-1.115-1.445-1.115-2.412 0-1.752 1.422-3.175 3.174-3.175h.012c1.752 0 3.174 1.423 3.174 3.175-.011 1.752-1.433 3.174-3.186 3.174z"/><path d="m48.496 81.074c-1.843-3.004-3.789-5.973-5.279-9.147-1.422-3.027-3.641-3.539-6.451-3.493-2.514.034-2.878.512-1.65 2.651 2.401 4.198 4.961 8.305 7.338 12.503-.682.978-1.08 2.173-1.08 3.447 0 3.345 2.719 6.064 6.064 6.064 3.344 0 6.064-2.719 6.064-6.064 0-2.969-2.173-5.449-5.006-5.961zm-1.058 9.147c-1.752 0-3.175-1.422-3.175-3.174 0-.228.023-.455.069-.672.307-1.433 1.581-2.514 3.106-2.514 1.354 0 2.514.853 2.969 2.048.125.353.205.728.205 1.126 0 1.764-1.422 3.186-3.174 3.186z"/></g><text transform="translate(107 16)"><tspan fill="#fff" font-family="Futura-Medium, Futura" font-size="50" x="1" y="52">T</tspan> <tspan fill="#fff" font-family="Futura-Medium, Futura" font-size="50" x="23.021484" y="52">a</tspan> <tspan fill="#fff" font-family="Futura-Medium, Futura" font-size="50" x="53.001953" y="52">c</tspan> <tspan fill="#fff" font-family="Futura-Medium, Futura" font-size="50" x="76.830078" y="52">t</tspan> <tspan fill="#fff" font-family="Futura-Medium, Futura" font-size="50" x="90.501953" y="52">i</tspan> <tspan fill="#fff" font-family="Futura-Medium, Futura" font-size="50" x="102.953125" y="52">c</tspan> <tspan fill="#fff" font-family="Futura-Medium, Futura" font-size="50" x="126.78125" y="52">a</tspan> <tspan fill="#fff" font-family="Futura-Medium, Futura" font-size="50" x="156.761719" y="52">l</tspan> <tspan fill="#fff" x="169.212891" y="52"/> <tspan fill="#fff" font-family="Futura-Medium, Futura" font-size="50" x="184.642578" y="52">T</tspan> <tspan fill="#fff" font-family="Futura-Medium, Futura" font-size="50" x="206.712891" y="52">e</tspan> <tspan fill="#fff" font-family="Futura-Medium, Futura" font-size="50" x="234.374023" y="52">k</tspan></text></svg>