<?xml version="1.0" encoding="UTF-8"?>
<svg width="122px" height="122px" viewBox="0 0 122 122" xmlns="http://www.w3.org/2000/svg" xmlns:xlink="http://www.w3.org/1999/xlink" version="1.1">
 <!-- Generated by Pixelmator Pro 1.1.5 -->
 <path id="path" d="M87.331 8.972 C90.21 8.26 92.037 9.917 93.585 12.858 96.201 17.858 99.173 22.687 102.083 27.548 103.167 29.344 103.291 30.892 102.176 32.78 96.604 42.254 91.124 51.759 85.675 61.294 84.452 63.446 83.848 63.307 82.316 61.341 78.972 57.053 79.127 53.369 82.254 48.879 85.922 43.616 88.724 37.765 92.022 32.238 92.95 30.675 92.858 29.483 91.96 27.981 88.941 22.935 86 17.842 83.121 12.718 81.186 9.266 81.371 9.019 85.474 8.988 85.892 8.972 86.34 8.972 87.331 8.972 Z" fill="#ff2600" fill-opacity="1" stroke="none"/>
 <path id="path-1" d="M119.158 57.455 C121.217 59.576 120.706 62.006 118.941 64.808 115.938 69.591 113.26 74.591 110.536 79.545 109.529 81.372 108.245 82.269 106.062 82.269 95.087 82.223 84.096 82.269 73.121 82.362 70.644 82.378 70.458 81.805 71.387 79.468 73.415 74.421 76.681 72.703 82.115 73.136 88.508 73.663 94.978 73.121 101.402 73.198 103.214 73.214 104.204 72.548 105.056 71 107.888 65.845 110.814 60.752 113.802 55.675 115.814 52.254 116.124 52.3 118.214 55.83 118.446 56.217 118.662 56.588 119.158 57.455 Z" fill="#ff2600" fill-opacity="1" stroke="none"/>
 <path id="path-2" d="M93.291 109.344 C92.501 112.192 90.133 112.981 86.836 112.858 81.186 112.672 75.52 112.873 69.87 113.012 67.78 113.059 66.371 112.409 65.272 110.52 59.777 101.016 54.204 91.542 48.601 82.099 47.331 79.963 47.749 79.514 50.226 79.158 55.613 78.369 58.74 80.319 61.093 85.242 63.864 91.031 67.579 96.356 70.752 101.944 71.65 103.523 72.734 104.034 74.498 103.988 80.381 103.848 86.263 103.802 92.13 103.833 96.093 103.848 96.201 104.142 94.22 107.718 94.003 108.105 93.786 108.492 93.291 109.344 Z" fill="#ff2600" fill-opacity="1" stroke="none"/>
 <path id="path-3" d="M35.443 113.136 C32.579 113.879 30.721 112.238 29.158 109.328 26.48 104.359 23.446 99.56 20.489 94.746 19.39 92.966 19.251 91.418 20.334 89.514 25.783 79.978 31.155 70.396 36.495 60.799 37.703 58.632 38.291 58.755 39.854 60.721 43.245 64.978 43.136 68.663 40.071 73.183 36.464 78.492 33.74 84.375 30.505 89.932 29.591 91.511 29.7 92.703 30.613 94.189 33.693 99.189 36.681 104.251 39.638 109.344 41.619 112.78 41.433 113.028 37.331 113.105 36.867 113.121 36.418 113.121 35.443 113.136 Z" fill="#ff2600" fill-opacity="1" stroke="none"/>
 <path id="path-4" d="M3.043 65.04 C0.953 62.935 1.433 60.505 3.167 57.687 6.124 52.873 8.74 47.842 11.402 42.842 12.393 41 13.647 40.087 15.845 40.071 26.82 39.994 37.811 39.808 48.786 39.591 51.263 39.545 51.449 40.118 50.551 42.455 48.585 47.533 45.35 49.282 39.901 48.91 33.508 48.461 27.037 49.065 20.613 49.081 18.802 49.081 17.811 49.777 16.991 51.325 14.22 56.511 11.356 61.65 8.43 66.743 6.464 70.18 6.155 70.133 4.019 66.65 3.771 66.279 3.539 65.892 3.043 65.04 Z" fill="#ff2600" fill-opacity="1" stroke="none"/>
 <path id="path-5" d="M28.276 12.842 C29.034 9.978 31.387 9.173 34.684 9.251 40.334 9.375 46 9.096 51.65 8.895 53.74 8.817 55.164 9.452 56.279 11.341 61.882 20.783 67.563 30.18 73.291 39.56 74.576 41.681 74.173 42.13 71.697 42.533 66.325 43.384 63.167 41.464 60.752 36.573 57.919 30.83 54.142 25.551 50.892 19.994 49.978 18.43 48.895 17.92 47.13 17.981 41.248 18.198 35.381 18.307 29.498 18.353 25.536 18.384 25.412 18.09 27.362 14.499 27.579 14.096 27.796 13.709 28.276 12.842 Z" fill="#ff2600" fill-opacity="1" stroke="none"/>
 <path id="path-6" d="M46.588 25.783 C40.21 25.814 33.833 26.062 27.455 26.077 26.031 23.647 23.368 22.006 20.35 22.006 15.799 22.006 12.099 25.706 12.099 30.257 12.099 34.808 15.799 38.508 20.35 38.508 23.198 38.508 25.706 37.068 27.192 34.87 31.526 34.7 35.876 34.483 40.179 34.808 44.715 35.149 46.805 32.873 48.647 29.514 50.272 26.495 49.963 25.768 46.588 25.783 Z M20.35 34.576 C19.947 34.576 19.545 34.514 19.173 34.421 17.362 33.91 16.031 32.238 16.031 30.257 16.031 27.873 17.966 25.938 20.35 25.938 21.062 25.938 21.743 26.108 22.347 26.418 23.724 27.146 24.669 28.585 24.669 30.257 24.669 32.641 22.734 34.576 20.35 34.576 Z" fill="#ff2600" fill-opacity="1" stroke="none"/>
 <path id="path-7" d="M27.687 55.845 C25.922 52.92 25.118 52.811 23.446 55.737 20.009 61.697 16.805 67.78 13.322 73.709 13.26 73.817 13.198 73.926 13.136 74.019 8.709 74.142 5.133 77.796 5.133 82.254 5.133 86.805 8.833 90.505 13.384 90.505 17.935 90.505 21.635 86.805 21.635 82.254 21.635 80.923 21.31 79.653 20.752 78.539 23.074 74.235 25.257 69.839 28.028 65.83 30.582 62.084 29.653 59.127 27.687 55.845 Z M17.47 83.616 C16.898 85.334 15.272 86.588 13.368 86.588 10.984 86.588 9.049 84.653 9.049 82.269 9.049 80.489 10.133 78.941 11.681 78.291 12.192 78.074 12.765 77.951 13.368 77.951 15.752 77.951 17.687 79.885 17.687 82.269 17.687 82.734 17.61 83.183 17.47 83.616 Z" fill="#ff2600" fill-opacity="1" stroke="none"/>
 <path id="path-8" d="M84.839 31.263 C81.635 25.505 78.214 19.87 75.04 14.096 76.015 12.749 76.573 11.093 76.573 9.313 76.573 4.762 72.873 1.062 68.322 1.062 63.771 1.062 60.071 4.762 60.071 9.313 60.071 13.322 62.95 16.681 66.758 17.409 69.235 21.557 71.836 25.629 73.817 29.994 75.706 34.142 78.709 34.87 82.548 34.854 85.984 34.839 86.48 34.204 84.839 31.263 Z M72.532 10.303 C72.083 12.208 70.365 13.632 68.322 13.632 66.48 13.632 64.885 12.455 64.282 10.83 64.111 10.365 64.003 9.854 64.003 9.313 64.003 6.929 65.938 4.994 68.322 4.994 70.706 4.994 72.641 6.929 72.641 9.313 72.656 9.653 72.61 9.978 72.532 10.303 Z" fill="#ff2600" fill-opacity="1" stroke="none"/>
 <path id="path-9" d="M109.514 32.656 C104.963 32.656 101.263 36.356 101.263 40.907 101.263 41.851 101.418 42.749 101.712 43.585 L101.712 43.585 C99.297 47.92 97.037 52.347 94.204 56.372 91.573 60.087 92.455 63.059 94.39 66.356 96.124 69.313 96.929 69.421 98.631 66.526 102.053 60.752 105.257 54.854 108.709 49.111 108.972 49.142 109.235 49.142 109.498 49.142 114.049 49.142 117.749 45.443 117.749 40.892 117.749 36.341 114.065 32.656 109.514 32.656 Z M110.613 45.071 C110.257 45.164 109.901 45.211 109.514 45.211 107.13 45.211 105.195 43.276 105.195 40.892 105.195 39.994 105.474 39.158 105.953 38.461 106.727 37.316 108.043 36.573 109.514 36.573 111.898 36.573 113.833 38.508 113.833 40.892 113.833 42.904 112.471 44.591 110.613 45.071 Z" fill="#ff2600" fill-opacity="1" stroke="none"/>
 <path id="path-10" d="M102.78 84.096 C100.133 84.096 97.765 85.365 96.248 87.316 91.371 87.424 86.495 87.687 81.666 87.254 77.13 86.851 75.009 89.112 73.136 92.44 71.464 95.427 71.758 96.17 75.133 96.186 81.913 96.232 88.693 96.031 95.474 96.124 96.851 98.755 99.607 100.567 102.78 100.567 107.331 100.567 111.031 96.867 111.031 92.316 111.031 87.796 107.331 84.096 102.78 84.096 Z M102.78 96.65 C101.712 96.65 100.737 96.263 99.978 95.613 99.049 94.824 98.461 93.647 98.461 92.331 98.461 89.947 100.396 88.012 102.78 88.012 L102.796 88.012 C105.179 88.012 107.115 89.947 107.115 92.331 107.099 94.715 105.164 96.65 102.78 96.65 Z" fill="#ff2600" fill-opacity="1" stroke="none"/>
 <path id="path-11" d="M55.861 104.406 C53.353 100.319 50.706 96.279 48.678 91.96 46.743 87.842 43.724 87.146 39.901 87.208 36.48 87.254 35.984 87.904 37.656 90.814 40.922 96.526 44.406 102.115 47.641 107.827 46.712 109.158 46.17 110.783 46.17 112.517 46.17 117.068 49.87 120.768 54.421 120.768 58.972 120.768 62.672 117.068 62.672 112.517 62.672 108.477 59.715 105.102 55.861 104.406 Z M54.421 116.851 C52.037 116.851 50.102 114.917 50.102 112.533 50.102 112.223 50.133 111.913 50.195 111.619 50.613 109.669 52.347 108.198 54.421 108.198 56.263 108.198 57.842 109.359 58.461 110.985 L58.461 110.985 C58.631 111.464 58.74 111.975 58.74 112.517 58.74 114.917 56.805 116.851 54.421 116.851 Z" fill="#ff2600" fill-opacity="1" stroke="none"/>
</svg>
